<svg id="Layer_1" data-name="Layer 1" xmlns="http://www.w3.org/2000/svg" viewBox="0 0 378 180"><defs><style>.cls-1{fill:#fff;}</style></defs><title>snu-logo-white-rgbvector</title><path class="cls-1" d="M226.93,50H212.72s5.71,2.5,5.71,7.67v49.22L158.09,50H134.6s5.83,2.5,5.83,7.67v58.46c0,5.16-5.74,7.68-5.74,7.68h28.42s-5.89-2.52-5.89-7.68V67.41L217,123.79h18.27V57.63c0-5.14,5.92-7.65,5.92-7.65Z"/><path class="cls-1" d="M348.11,50H320.59s5.55,2.5,5.55,7.67v44.66A5.26,5.26,0,0,1,321,107.5H269.62a5.26,5.26,0,0,1-5.19-5.19V57.66c0-5.16,5.74-7.68,5.74-7.68H242.4s5.74,2.52,5.74,7.68v44.65a21.5,21.5,0,0,0,21.48,21.48H321a21.5,21.5,0,0,0,21.48-21.48V57.65C342.44,52.48,348.11,50,348.11,50Z"/><rect class="cls-1" x="240.28" y="137.12" width="107.85" height="2.64"/><rect class="cls-1" x="29.62" y="137.12" width="107.85" height="2.64"/><rect class="cls-1" x="29.62" y="34.02" width="318.52" height="2.64"/><path class="cls-1" d="M156.09,134.52h.27a1.6,1.6,0,0,0,0,.33c0,.15.09.22.22.22l.25-.08.46-.17.48-.19.3-.11v-.74c0-.17-.05-.28-.16-.32a.86.86,0,0,0-.3-.09v-.28h4.52v.28a1.31,1.31,0,0,0-.43.09c-.11,0-.17.15-.17.32v10.74a.31.31,0,0,0,.17.32,1.18,1.18,0,0,0,.38.09v.28h-4.58v-.28a1.18,1.18,0,0,0,.4-.09c.12-.05.17-.15.17-.32v-7.33l-.93.23a2,2,0,0,0-.53.2.58.58,0,0,0-.23.24.92.92,0,0,0-.06.37h-.27Z"/><path class="cls-1" d="M177.27,133a11.25,11.25,0,0,1,1.6.13,6.85,6.85,0,0,1,1.8.49,4.16,4.16,0,0,1,1.46,1,2.49,2.49,0,0,1,.6,1.74,2.19,2.19,0,0,1-.53,1.52,4,4,0,0,1-1.31,1,4.78,4.78,0,0,1,1.72,1,2.41,2.41,0,0,1,.68,1.82,2.76,2.76,0,0,1-.61,1.84,4.22,4.22,0,0,1-1.53,1.12,6.53,6.53,0,0,1-2,.53,14.32,14.32,0,0,1-3.85,0,6.68,6.68,0,0,1-2-.53,4.18,4.18,0,0,1-1.52-1.12,2.71,2.71,0,0,1-.61-1.84,2.87,2.87,0,0,1,.17-1,3,3,0,0,1,.47-.81,3.25,3.25,0,0,1,.7-.63,4.9,4.9,0,0,1,.83-.49,3.62,3.62,0,0,1-1.11-.88,2.23,2.23,0,0,1-.51-1.51,2.49,2.49,0,0,1,.6-1.74,4.25,4.25,0,0,1,1.46-1,7.07,7.07,0,0,1,1.8-.49A11.36,11.36,0,0,1,177.27,133Zm0,7.14a6.17,6.17,0,0,0-.8.06,3.74,3.74,0,0,0-.89.22,1.94,1.94,0,0,0-.71.46,1.14,1.14,0,0,0,0,1.52,1.82,1.82,0,0,0,.71.46,3.74,3.74,0,0,0,.89.22,6.17,6.17,0,0,0,.8.06,6.44,6.44,0,0,0,.81-.06,3.86,3.86,0,0,0,.89-.22,1.82,1.82,0,0,0,.71-.46,1.14,1.14,0,0,0,0-1.52,1.94,1.94,0,0,0-.71-.46,3.86,3.86,0,0,0-.89-.22A6.44,6.44,0,0,0,177.27,140.09Zm0-2.35a5.6,5.6,0,0,0,.69-.05,3.15,3.15,0,0,0,.7-.2,1.5,1.5,0,0,0,.54-.39,1,1,0,0,0,0-1.26,1.75,1.75,0,0,0-.54-.38,3.13,3.13,0,0,0-.7-.19,4.2,4.2,0,0,0-.69-.06,4.48,4.48,0,0,0-.68.06,3.13,3.13,0,0,0-.7.19,1.54,1.54,0,0,0-.54.38,1,1,0,0,0,0,1.26,1.34,1.34,0,0,0,.54.39,3.15,3.15,0,0,0,.7.2A6,6,0,0,0,177.27,137.74Z"/><path class="cls-1" d="M193,141.73v.21a.67.67,0,0,0,.25.52,2,2,0,0,0,.67.35,5.73,5.73,0,0,0,1,.21,7.88,7.88,0,0,0,1.09.07,5.13,5.13,0,0,0,1.42-.2,3.76,3.76,0,0,0,1.22-.6,3.33,3.33,0,0,0,.9-1,3.16,3.16,0,0,0,.42-1.43,13.68,13.68,0,0,1-2.18.9,7.4,7.4,0,0,1-2.15.3,5.05,5.05,0,0,1-1.7-.28,4.26,4.26,0,0,1-1.43-.8,3.9,3.9,0,0,1-1-1.28,3.72,3.72,0,0,1-.37-1.69,3.25,3.25,0,0,1,.52-1.88,4.15,4.15,0,0,1,1.31-1.26,6,6,0,0,1,1.78-.7,9,9,0,0,1,1.9-.22,8.59,8.59,0,0,1,2.62.37,5.44,5.44,0,0,1,2,1.12,5.08,5.08,0,0,1,1.3,1.86,6.88,6.88,0,0,1,.46,2.64,6.24,6.24,0,0,1-.57,2.72,5.82,5.82,0,0,1-1.55,2,6.3,6.3,0,0,1-2.24,1.21,8.9,8.9,0,0,1-2.69.41,13.91,13.91,0,0,1-1.65-.09,11.17,11.17,0,0,1-1.3-.25c-.37-.1-.66-.18-.87-.26a2.06,2.06,0,0,0-.39-.12.73.73,0,0,0-.53.26l-.28-.12,1.82-3.09Zm3.64-6.43a4.57,4.57,0,0,0-.76.08,3.36,3.36,0,0,0-.83.27,1.87,1.87,0,0,0-.67.52,1.28,1.28,0,0,0-.27.84,1.32,1.32,0,0,0,.27.84,2.12,2.12,0,0,0,.67.52,3.34,3.34,0,0,0,.83.26,3.65,3.65,0,0,0,1.52,0,3.34,3.34,0,0,0,.83-.26,2.12,2.12,0,0,0,.67-.52,1.32,1.32,0,0,0,.27-.84,1.28,1.28,0,0,0-.27-.84,1.87,1.87,0,0,0-.67-.52,3.36,3.36,0,0,0-.83-.27A4.57,4.57,0,0,0,196.59,135.3Z"/><path class="cls-1" d="M211.63,141.73v.21a.68.68,0,0,0,.26.52,2,2,0,0,0,.67.35,5.39,5.39,0,0,0,.95.21,8,8,0,0,0,1.1.07,5.06,5.06,0,0,0,1.41-.2,3.81,3.81,0,0,0,1.23-.6,3.18,3.18,0,0,0,.89-1,3.29,3.29,0,0,0,.43-1.43,14.15,14.15,0,0,1-2.19.9,7.33,7.33,0,0,1-2.14.3,5.11,5.11,0,0,1-1.71-.28,4.47,4.47,0,0,1-1.43-.8,4,4,0,0,1-1-1.28,3.85,3.85,0,0,1-.36-1.69,3.32,3.32,0,0,1,.51-1.88,4.29,4.29,0,0,1,1.32-1.26,6,6,0,0,1,1.77-.7,9.09,9.09,0,0,1,1.9-.22,8.62,8.62,0,0,1,2.63.37,5.48,5.48,0,0,1,2,1.12,5,5,0,0,1,1.31,1.86,7.08,7.08,0,0,1,.46,2.64,6.25,6.25,0,0,1-.58,2.72,5.8,5.8,0,0,1-1.54,2,6.44,6.44,0,0,1-2.25,1.21,8.83,8.83,0,0,1-2.68.41,13.91,13.91,0,0,1-1.65-.09,10.77,10.77,0,0,1-1.3-.25c-.37-.1-.66-.18-.88-.26a1.7,1.7,0,0,0-.39-.12.76.76,0,0,0-.53.26l-.28-.12,1.82-3.09Zm3.65-6.43a4.79,4.79,0,0,0-.77.08,3.29,3.29,0,0,0-.82.27,1.71,1.71,0,0,0-.67.52,1.24,1.24,0,0,0-.28.84,1.27,1.27,0,0,0,.28.84,1.92,1.92,0,0,0,.67.52,3.27,3.27,0,0,0,.82.26,3.7,3.7,0,0,0,1.53,0,3.27,3.27,0,0,0,.82-.26,1.92,1.92,0,0,0,.67-.52,1.27,1.27,0,0,0,.28-.84,1.24,1.24,0,0,0-.28-.84,1.71,1.71,0,0,0-.67-.52,3.29,3.29,0,0,0-.82-.27A4.8,4.8,0,0,0,215.28,135.3Z"/><path class="cls-1" d="M109.2,82.88,57.07,78.22a4.51,4.51,0,0,1-.53-.08v0a6.46,6.46,0,0,1,.14-12.92h51.27c3.53,0,3.27-.09,4.46.48,2,1,2,5.19,1.3,6.33A6.5,6.5,0,0,1,112,74.29h17.62V64c0-8.25-8.9-14-21.63-14H56.43C44.5,50,34.8,59.45,34.8,71.1c0,11.29,9.73,19.21,21.24,20.24l52.54,5.34h0v0h.23a8.12,8.12,0,0,1,2.11.47,6,6,0,0,1,3.28,3.59c0,.13.08.27.11.4s0,.06,0,.09a3.4,3.4,0,0,1,.07.34,5.66,5.66,0,0,1,.09,1,5.91,5.91,0,0,1-4.45,5.73,7.81,7.81,0,0,1-1.62.18H56.94a18.6,18.6,0,0,1-2.44-.12c-2.29-.33-2.57-2.62-2.31-4.55.31-2.29,3.37-4.11,3.37-4.11H35.31v10.81c0,7.92,8.69,13.24,21.63,13.24h51.51c11.93,0,21.63-8.91,21.63-19.85C130.08,93.17,122.89,83.74,109.2,82.88Z"/></svg>